<svg width="120" height="124" viewBox="0 0 120 124" fill="none" xmlns="http://www.w3.org/2000/svg">
<path d="M40.1252 43.9812H36.5361V32.2942C37.6973 33.5143 38.8866 34.6989 40.1252 35.8197V43.9812Z" fill="#00BCD6" stroke="#00BCD6"/>
<path d="M83.3141 43.9823H79.4551V34.9559C80.7594 33.7312 82.0422 32.4846 83.3141 31.2296V43.9823Z" fill="#00BCD6" stroke="#00BCD6"/>
<path d="M79.4551 100.088V83.042H83.3141V99.413C83.3141 112.31 72.822 122.802 59.9251 122.802C47.0283 122.802 36.5361 112.31 36.5361 99.413V83.042H40.3951V100.088V100.588H40.4353C41.0451 110.811 49.5503 118.943 59.9251 118.943C70.3 118.943 78.8051 110.811 79.415 100.588H79.4551V100.088Z" fill="#00BCD6" stroke="#00BCD6"/>
<path d="M27.668 83.0423H40.395V86.7663H23.889C10.9921 86.7663 0.5 76.2741 0.5 63.3773C0.5 50.4804 10.9921 39.9883 23.889 39.9883H40.125V43.8473H23.889C13.1199 43.8473 4.35898 52.6081 4.35898 63.3773C4.35898 74.1464 13.1199 82.9073 23.889 82.9073H27.168V83.0423H27.668Z" fill="#00BCD6" stroke="#00BCD6"/>
<path d="M89.7531 83.0423H90.2531V82.9073H95.9611C106.73 82.9073 115.491 74.1464 115.491 63.3773C115.491 52.6081 106.73 43.8473 95.9611 43.8473H79.4551V39.9883H95.9611C108.858 39.9883 119.351 50.4804 119.351 63.3773C119.351 76.2741 108.859 86.7663 95.9621 86.7663H79.4561V83.0423H89.7531Z" fill="#00BCD6" stroke="#00BCD6"/>
<path d="M37.9261 100.937C30.1652 100.937 23.8501 94.622 23.8501 86.8612C23.8501 79.1003 30.1652 72.7852 37.9261 72.7852C45.6869 72.7852 52.0021 79.1003 52.0021 86.8612C52.0021 94.622 45.6869 100.937 37.9261 100.937ZM37.9261 76.6432C32.2919 76.6432 27.7091 81.226 27.7091 86.8602C27.7091 92.4953 32.2919 97.0781 37.9261 97.0781C43.5613 97.0781 48.1431 92.4952 48.1431 86.8602C48.1431 81.226 43.5602 76.6432 37.9261 76.6432Z" fill="#00BCD6" stroke="#00BCD6"/>
<path d="M44.9339 79.5813C48.9551 83.6025 48.9551 90.1221 44.9339 94.1433C40.9127 98.1645 34.3931 98.1645 30.3719 94.1433C26.3507 90.1221 26.3507 83.6025 30.3719 79.5813C34.3931 75.5601 40.9127 75.5601 44.9339 79.5813Z" fill="white" stroke="#00BCD6"/>
<path d="M37.9261 100.937C30.1652 100.937 23.8501 94.622 23.8501 86.8612C23.8501 79.1003 30.1652 72.7852 37.9261 72.7852C45.6869 72.7852 52.0021 79.1003 52.0021 86.8612C52.0021 94.622 45.6869 100.937 37.9261 100.937ZM37.9261 76.6432C32.2919 76.6432 27.7091 81.226 27.7091 86.8602C27.7091 92.4953 32.2919 97.0781 37.9261 97.0781C43.5613 97.0781 48.1431 92.4952 48.1431 86.8602C48.1431 81.226 43.5602 76.6432 37.9261 76.6432Z" fill="#00BCD6" stroke="#00BCD6"/>
<path d="M60.6631 42.0527V69.1067C60.6631 77.4217 66.5311 84.1617 74.8461 84.1617L95.1511 84.4317" stroke="#00BCD6" stroke-width="4.049" stroke-miterlimit="10" stroke-linecap="round" stroke-linejoin="round"/>
<path d="M55.4218 3.67944L52.5078 3.48544C40.1098 2.65944 33.0348 17.8684 42.0298 26.4404C42.2738 26.6724 42.5258 26.8994 42.7858 27.1204L59.5208 42.3234" stroke="#00BCD6" stroke-width="5.2696" stroke-miterlimit="10" stroke-linecap="round" stroke-linejoin="round"/>
<path d="M66.368 3.22631L69.282 3.03231C81.68 2.20631 88.755 17.4153 79.76 25.9873C79.516 26.2193 79.2641 26.4463 79.0041 26.6673L62.269 41.8703" stroke="#00BCD6" stroke-width="5.2696" stroke-miterlimit="10" stroke-linecap="round" stroke-linejoin="round"/>
</svg>
