<svg width="113" height="113" viewBox="0 0 113 113" fill="none" xmlns="http://www.w3.org/2000/svg">
<path d="M112.117 56.058C112.117 87.019 87.019 112.117 56.058 112.117C25.099 112.117 0 87.019 0 56.058C0 25.097 25.099 0 56.058 0C87.019 0 112.117 25.097 112.117 56.058Z" fill="#FEB601"/>
<mask id="mask0_272_3483" style="mask-type:luminance" maskUnits="userSpaceOnUse" x="0" y="0" width="113" height="113">
<path d="M112.117 56.058C112.117 87.019 87.019 112.117 56.058 112.117C25.099 112.117 0 87.019 0 56.058C0 25.097 25.099 0 56.058 0C87.019 0 112.117 25.097 112.117 56.058Z" fill="white"/>
</mask>
<g mask="url(#mask0_272_3483)">
<path d="M74.9899 80.4951H66.8169H62.3109H49.8089H37.1269C33.3559 80.4951 30.2969 83.5531 30.2969 87.3251V112.686H81.8189V87.3251C81.8189 83.5531 78.7619 80.4951 74.9899 80.4951Z" fill="white"/>
<path d="M55.9753 80.4951H44.8643L55.9753 100.956L67.0873 80.4951H55.9753Z" fill="#B0D9D7"/>
<path d="M37.6758 80.4951L56.0578 112.115V100.956L44.8638 80.4951H37.6758Z" fill="#E5E5E5"/>
<path d="M74.4396 80.4951L56.0576 112.115L56.0156 100.88L67.0866 80.4951H74.4396Z" fill="#E5E5E5"/>
<path d="M46.2725 98.5093C46.5505 98.5093 46.7755 98.2843 46.7755 98.0063V84.5723C46.7755 80.0323 49.7465 77.8263 55.8575 77.8263C62.3335 77.8263 65.6165 80.0963 65.6165 84.5723V92.3423C60.1585 92.5463 57.6655 96.0783 57.6655 99.3673V106.136C57.6655 106.414 57.8905 106.639 58.1685 106.639C58.4465 106.639 58.6715 106.414 58.6715 106.136V99.3673C58.6715 97.1273 60.2405 93.3383 66.1205 93.3383C73.0425 93.3383 73.5805 98.2143 73.5805 99.7093V106.207C73.5805 106.485 73.8055 106.71 74.0835 106.71C74.3615 106.71 74.5865 106.485 74.5865 106.207V99.7093C74.5865 96.2403 72.4815 92.5423 66.6235 92.3423V84.5733C66.6235 81.0363 64.7555 76.8213 55.8595 76.8213C49.1655 76.8213 45.7715 79.4293 45.7715 84.5733V98.0073C45.7695 98.2843 45.9945 98.5093 46.2725 98.5093Z" fill="#181C19"/>
<path d="M57.1748 106.731C57.1748 106.003 57.7648 105.412 58.4938 105.412C59.2218 105.412 59.8118 106.003 59.8118 106.731C59.8118 107.459 59.2218 108.049 58.4938 108.049C57.7648 108.05 57.1748 107.459 57.1748 106.731Z" fill="#506675"/>
<path d="M72.3828 106.731C72.3828 105.973 72.9978 105.358 73.7548 105.358C74.5128 105.358 75.1268 105.973 75.1268 106.731C75.1268 107.489 74.5128 108.103 73.7548 108.103C72.9978 108.104 72.3828 107.489 72.3828 106.731Z" fill="#506675"/>
<path d="M74.6786 106.586C74.7436 106.586 74.7976 106.636 74.8026 106.702C74.8166 106.892 74.7746 107.081 74.6786 107.248C74.4966 107.567 74.1416 107.754 73.7746 107.726C73.7056 107.721 73.6546 107.66 73.6606 107.592C73.6656 107.523 73.7276 107.478 73.7946 107.477C74.0626 107.499 74.3276 107.359 74.4626 107.123C74.5336 107 74.5646 106.86 74.5536 106.719C74.5486 106.651 74.5996 106.591 74.6686 106.585C74.6726 106.586 74.6756 106.586 74.6786 106.586Z" fill="#D1E1E8"/>
<path d="M57.6003 106.586C57.6033 106.586 57.6073 106.586 57.6093 106.586C57.6783 106.591 57.7293 106.651 57.7243 106.72C57.7133 106.861 57.7453 107.001 57.8153 107.124C57.9503 107.36 58.2123 107.5 58.4833 107.478C58.5503 107.48 58.6123 107.524 58.6173 107.593C58.6223 107.661 58.5713 107.722 58.5033 107.727C58.1353 107.752 57.7813 107.568 57.5983 107.249C57.5033 107.082 57.4603 106.893 57.4743 106.703C57.4803 106.635 57.5353 106.586 57.6003 106.586Z" fill="#D1E1E8"/>
<path d="M46.277 100.956C47.6715 100.956 48.802 99.8258 48.802 98.4312C48.802 97.0367 47.6715 95.9062 46.277 95.9062C44.8824 95.9062 43.752 97.0367 43.752 98.4312C43.752 99.8258 44.8824 100.956 46.277 100.956Z" fill="#808080"/>
<path d="M46.2773 99.8446C47.0576 99.8446 47.6903 99.2119 47.6903 98.4315C47.6903 97.6512 47.0576 97.0186 46.2773 97.0186C45.4969 97.0186 44.8643 97.6512 44.8643 98.4315C44.8643 99.2119 45.4969 99.8446 46.2773 99.8446Z" fill="#1E1E1E"/>
<path d="M62.3096 67.875H49.8086V80.496H62.3096V67.875Z" fill="#FED2BC"/>
<path d="M56.0596 86.7461C59.5116 86.7461 62.3106 83.9471 62.3106 80.4951H49.8086C49.8086 83.9471 52.6066 86.7461 56.0596 86.7461Z" fill="#FED2BC"/>
<path d="M56.0598 75.2891C56.0598 75.2891 51.7348 75.621 49.8008 75.794C50.8928 77.508 53.7448 78.621 56.0598 78.621C58.4108 78.621 61.2268 77.508 62.3188 75.794C60.3848 75.621 56.0598 75.2891 56.0598 75.2891Z" fill="#FF8F78"/>
<path d="M75.2311 57.475C78.0544 57.475 80.3431 55.1863 80.3431 52.363C80.3431 49.5397 78.0544 47.251 75.2311 47.251C72.4079 47.251 70.1191 49.5397 70.1191 52.363C70.1191 55.1863 72.4079 57.475 75.2311 57.475Z" fill="#FED2BC"/>
<path d="M75.2307 55.4125C76.9151 55.4125 78.2807 54.047 78.2807 52.3625C78.2807 50.678 76.9151 49.3125 75.2307 49.3125C73.5462 49.3125 72.1807 50.678 72.1807 52.3625C72.1807 54.047 73.5462 55.4125 75.2307 55.4125Z" fill="#FF8F78"/>
<path d="M36.8874 57.475C39.7107 57.475 41.9994 55.1863 41.9994 52.363C41.9994 49.5397 39.7107 47.251 36.8874 47.251C34.0641 47.251 31.7754 49.5397 31.7754 52.363C31.7754 55.1863 34.0641 57.475 36.8874 57.475Z" fill="#FED2BC"/>
<path d="M36.8879 55.4125C38.5724 55.4125 39.9379 54.047 39.9379 52.3625C39.9379 50.678 38.5724 49.3125 36.8879 49.3125C35.2034 49.3125 33.8379 50.678 33.8379 52.3625C33.8379 54.047 35.2034 55.4125 36.8879 55.4125Z" fill="#FF8F78"/>
<path d="M75.1737 37.3616C74.5907 27.2966 66.2687 19.3086 56.0587 19.3086C45.8477 19.3086 37.5267 27.2956 36.9437 37.3616H36.8877V57.5756H36.8897C36.8897 57.6006 36.8877 57.6266 36.8877 57.6506C36.8877 68.2386 45.4717 76.8216 56.0587 76.8216C66.6457 76.8216 75.2297 68.2386 75.2297 57.6506C75.2297 57.6266 75.2277 57.6006 75.2277 57.5756H75.2297V37.3616H75.1737Z" fill="#FED2BC"/>
<path d="M49.1896 49.567C49.1896 50.846 48.1526 51.883 46.8726 51.883C45.5936 51.883 44.5566 50.846 44.5566 49.567C44.5566 48.288 45.5936 47.251 46.8726 47.251C48.1526 47.25 49.1896 48.287 49.1896 49.567Z" fill="#1E1E1E"/>
<path d="M67.0432 49.567C67.0432 50.846 66.0062 51.883 64.7272 51.883C63.4482 51.883 62.4102 50.846 62.4102 49.567C62.4102 48.288 63.4482 47.251 64.7272 47.251C66.0062 47.25 67.0432 48.287 67.0432 49.567Z" fill="#1E1E1E"/>
<path d="M65.2705 16.6616C63.5685 16.6616 61.3165 16.6616 59.9865 16.6616V16.6416H53.0825C53.0825 16.6416 52.7885 16.6416 52.3175 16.6416C51.0695 16.6416 48.5435 16.6416 46.6775 16.6416C37.2385 16.6416 33.2715 22.6426 33.2715 29.2146C33.2715 32.6256 33.2715 31.9916 33.2715 40.5346C33.2715 40.8496 33.2715 41.1506 33.2715 41.4936V47.6186C33.2715 47.6186 35.3465 47.6186 36.7175 47.6186C37.7825 47.6186 38.3635 46.7646 38.3635 45.6466C38.3635 44.3946 38.3635 41.4936 38.3635 41.4936C38.3695 41.4936 38.3775 41.4936 38.3835 41.4936C38.3835 33.6656 42.6965 29.2146 47.4895 29.2146H52.3165H53.0815H58.8655V29.2346H64.4565C69.2495 29.2346 73.5625 33.6856 73.5625 41.5136C73.5685 41.5136 73.5765 41.5136 73.5825 41.5136C73.5825 41.5136 73.5825 44.4156 73.5825 45.6676C73.5825 46.7856 74.1635 47.6396 75.2285 47.6396C76.5995 47.6396 78.6745 47.6396 78.6745 47.6396V41.5136C78.6745 41.1716 78.6745 40.8706 78.6745 40.5556C78.6745 32.0116 78.6745 32.6456 78.6745 29.2346C78.6765 22.6626 74.7105 16.6616 65.2705 16.6616Z" fill="#964229"/>
<path d="M49.1901 46.3059C49.0091 46.3059 48.8301 46.2309 48.7041 46.0819C48.4181 45.7479 47.7911 45.5239 47.0701 45.4999C46.2391 45.4589 45.4021 45.7189 45.0131 46.1139C44.7651 46.3669 44.3611 46.3699 44.1091 46.1229C43.8571 45.8759 43.8541 45.4719 44.1011 45.2199C44.7461 44.5629 45.9071 44.1809 47.1141 44.2229C48.2151 44.2599 49.1481 44.6349 49.6761 45.2519C49.9051 45.5199 49.8741 45.9229 49.6061 46.1519C49.4851 46.2559 49.3371 46.3059 49.1901 46.3059Z" fill="#1E1E1E"/>
<path d="M62.4088 46.3054C62.2618 46.3054 62.1148 46.2554 61.9938 46.1524C61.7258 45.9234 61.6948 45.5194 61.9238 45.2524C62.4518 44.6354 63.3848 44.2604 64.4858 44.2234C65.7068 44.1844 66.8548 44.5644 67.4988 45.2204C67.7458 45.4724 67.7428 45.8764 67.4908 46.1234C67.2398 46.3714 66.8348 46.3684 66.5868 46.1144C66.1978 45.7194 65.3568 45.4584 64.5298 45.5004C63.8078 45.5244 63.1818 45.7484 62.8958 46.0824C62.7688 46.2304 62.5898 46.3054 62.4088 46.3054Z" fill="#1E1E1E"/>
<path d="M56.0596 71.04C52.6076 71.04 49.8096 68.242 49.8096 64.79H62.3096C62.3106 68.242 59.5116 71.04 56.0596 71.04Z" fill="#AA2618"/>
<path d="M55.975 28.5215H46.873V29.2425C49.065 29.2425 52.234 33.5285 55.975 33.5285C59.716 33.5285 62.885 29.2425 65.077 29.2425V28.5215H55.975Z" fill="#964229"/>
<path d="M56.0513 59.2578C54.7363 59.2578 53.6003 58.5318 52.9883 57.4668C53.0573 59.1048 54.3963 60.4138 56.0513 60.4138C57.7043 60.4138 59.0443 59.1038 59.1133 57.4668C58.5023 58.5328 57.3663 59.2578 56.0513 59.2578Z" fill="#FF8F78"/>
<path d="M47.6898 102.022H37.6758V104.647H47.6898V102.022Z" fill="#E5E5E5"/>
</g>
</svg>
