<svg width="147" height="147" viewBox="0 0 147 147" fill="none" xmlns="http://www.w3.org/2000/svg">
<path d="M124.967 94.1171C136.614 65.4321 122.802 32.7364 94.1175 21.089C65.4325 9.44165 32.7367 23.2534 21.0894 51.9383C9.44204 80.6232 23.2537 113.319 51.9387 124.966C80.6236 136.614 113.319 122.802 124.967 94.1171Z" fill="#EF5A51"/>
<mask id="mask0_272_3275" style="mask-type:luminance" maskUnits="userSpaceOnUse" x="16" y="16" width="114" height="114">
<path d="M124.967 94.1171C136.614 65.4321 122.802 32.7364 94.1174 21.089C65.4325 9.44166 32.7367 23.2534 21.0894 51.9383C9.44204 80.6232 23.2537 113.319 51.9387 124.966C80.6236 136.614 113.319 122.802 124.967 94.1171Z" fill="white"/>
</mask>
<g mask="url(#mask0_272_3275)">
<path d="M92.0622 98.0713H83.8902H79.3842H66.8822H54.1982C50.4262 98.0713 47.3682 101.129 47.3682 104.901V130.263H98.8912V104.901C98.8932 101.129 95.8342 98.0713 92.0622 98.0713Z" fill="#BBEAF2"/>
<path d="M76.4662 102.947H73.1292H69.7922L68.0732 106.697C68.0732 106.697 68.9342 110.114 73.1292 110.114C77.3232 110.114 78.1852 106.697 78.1852 106.697L76.4662 102.947Z" fill="#151516"/>
<path d="M79.5551 130.364L75.0341 108.281H73.131H73.1301H71.2281L66.7061 130.364H73.1291H73.132H79.5551Z" fill="#151516"/>
<path d="M66.916 94.7337C64.711 94.7337 62.336 95.4607 60.509 99.1877C59.569 101.106 59.659 108.071 64.909 113.071C66.284 108.508 69.2219 103.903 72.4109 104.325C73.6539 100.352 68.049 94.6837 66.916 94.7337Z" fill="white"/>
<path d="M79.3518 94.7337C81.5568 94.7337 83.9318 95.4607 85.7588 99.1877C86.6988 101.106 86.6088 108.071 81.3588 113.071C79.9838 108.508 77.0458 103.903 73.8568 104.325C72.6128 100.352 78.2188 94.6837 79.3518 94.7337Z" fill="white"/>
<path d="M73.1328 104.322C76.5858 104.322 79.3848 101.523 79.3848 98.0713H66.8828C66.8828 101.523 69.6818 104.322 73.1328 104.322Z" fill="#FED2BC"/>
<path d="M79.3848 85.4502H66.8828V98.5112H79.3848V85.4502Z" fill="#FED2BC"/>
<path d="M73.133 92.8857C73.133 92.8857 68.809 93.2177 66.874 93.3907C67.967 95.1047 70.818 96.2177 73.133 96.2177C75.485 96.2177 78.3 95.1047 79.393 93.3907C77.458 93.2177 73.133 92.8857 73.133 92.8857Z" fill="#FF8F78"/>
<path d="M97.4164 69.9382C97.4164 72.7612 95.1274 75.0502 92.3054 75.0502C89.4814 75.0502 87.1924 72.7612 87.1924 69.9382C87.1924 67.1152 89.4814 64.8262 92.3054 64.8262C95.1274 64.8252 97.4164 67.1142 97.4164 69.9382Z" fill="#1E1E1E"/>
<path d="M96.119 68.4521C96.119 69.0721 95.6161 69.5751 94.9961 69.5751C94.3751 69.5751 93.8721 69.0721 93.8721 68.4521C93.8721 67.8321 94.3751 67.3291 94.9961 67.3291C95.6161 67.3291 96.119 67.8321 96.119 68.4521Z" fill="#CCCCCC"/>
<path d="M59.0746 69.9382C59.0746 72.7612 56.7856 75.0502 53.9636 75.0502C51.1396 75.0502 48.8506 72.7612 48.8506 69.9382C48.8506 67.1152 51.1396 64.8262 53.9636 64.8262C56.7856 64.8252 59.0746 67.1142 59.0746 69.9382Z" fill="#FED2BC"/>
<path d="M56.9915 69.9382C56.9915 71.6102 55.6365 72.9662 53.9645 72.9662C52.2905 72.9662 50.9355 71.6092 50.9355 69.9382C50.9355 68.2662 52.2905 66.9102 53.9645 66.9102C55.6365 66.9092 56.9915 68.2652 56.9915 69.9382Z" fill="#FF8F78"/>
<path d="M92.2479 54.9368C91.6659 44.8728 83.3439 36.8848 73.1329 36.8848C62.9219 36.8848 54.6019 44.8728 54.0179 54.9368H53.9629V75.1518H53.9649C53.9649 75.1768 53.9629 75.2018 53.9629 75.2268C53.9629 85.8148 62.5449 94.3978 73.1329 94.3978C83.7209 94.3978 92.3049 85.8148 92.3049 75.2268C92.3049 75.2018 92.3029 75.1768 92.3029 75.1518H92.3049V54.9368H92.2479Z" fill="#FED2BC"/>
<path d="M66.2639 67.1422C66.2639 68.4212 65.2248 69.4582 63.9478 69.4582C62.6668 69.4582 61.6318 68.4212 61.6318 67.1422C61.6318 65.8632 62.6668 64.8262 63.9478 64.8262C65.2248 64.8252 66.2639 65.8622 66.2639 67.1422Z" fill="#1E1E1E"/>
<path d="M84.1174 67.1422C84.1174 68.4212 83.0784 69.4582 81.8014 69.4582C80.5204 69.4582 79.4854 68.4212 79.4854 67.1422C79.4854 65.8632 80.5204 64.8262 81.8014 64.8262C83.0784 64.8252 84.1174 65.8622 84.1174 67.1422Z" fill="#1E1E1E"/>
<path d="M82.3437 34.2378C80.6427 34.2378 78.3907 34.2378 77.0607 34.2378V34.2178H70.1567C70.1567 34.2178 69.8637 34.2178 69.3927 34.2178C68.1447 34.2178 65.6197 34.2178 63.7517 34.2178C54.3117 34.2178 50.3457 40.2188 50.3457 46.7918C50.3457 50.2028 50.3457 49.5688 50.3457 58.1118C50.3457 58.4278 50.3457 58.7288 50.3457 59.0708V65.1958C50.3457 65.1958 52.4217 65.1958 53.7927 65.1958C54.8587 65.1958 55.4387 64.3428 55.4387 63.2238C55.4387 61.9718 55.4387 59.0708 55.4387 59.0708C55.4447 59.0708 55.4527 59.0708 55.4587 59.0708C55.4587 53.5148 57.6347 49.6708 60.6087 47.9008V57.2268H85.6517V48.0168C88.5427 49.8298 90.6377 53.6368 90.6377 59.0898C90.6437 59.0898 90.6517 59.0898 90.6577 59.0898C90.6577 59.0898 90.6577 61.9918 90.6577 63.2438C90.6577 64.3608 91.2377 65.2158 92.3047 65.2158C93.6757 65.2158 95.7497 65.2158 95.7497 65.2158V59.0898C95.7497 58.7478 95.7497 58.4468 95.7497 58.1308C95.7497 49.5878 95.7497 50.2218 95.7497 46.8108C95.7497 40.2388 91.7827 34.2378 82.3437 34.2378Z" fill="#743713"/>
<path d="M66.2639 63.8819C66.0839 63.8819 65.9048 63.8069 65.7778 63.6579C65.4928 63.3239 64.8669 63.0999 64.1459 63.0759C63.2929 63.0399 62.4759 63.2949 62.0869 63.6899C61.8399 63.9419 61.4348 63.9469 61.1838 63.6989C60.9318 63.4519 60.9278 63.0479 61.1748 62.7959C61.8198 62.1399 62.9669 61.7659 64.1899 61.7989C65.2909 61.8359 66.2229 62.2119 66.7499 62.8279C66.9789 63.0959 66.9468 63.4999 66.6788 63.7289C66.5588 63.8319 66.4119 63.8819 66.2639 63.8819Z" fill="#1E1E1E"/>
<path d="M79.4849 63.8816C79.3369 63.8816 79.1899 63.8316 79.0699 63.7296C78.8009 63.5006 78.7699 63.0966 78.9989 62.8286C79.5249 62.2126 80.4579 61.8376 81.5569 61.7996C82.7689 61.7606 83.9289 62.1386 84.5749 62.7956C84.8219 63.0476 84.8179 63.4526 84.5669 63.6996C84.3149 63.9466 83.9109 63.9426 83.6629 63.6916C83.2719 63.2946 82.4189 63.0366 81.6019 63.0766C80.8809 63.1006 80.2569 63.3246 79.9719 63.6586C79.8439 63.8066 79.6649 63.8816 79.4849 63.8816Z" fill="#1E1E1E"/>
<path d="M73.1328 87.6182C76.5858 87.6182 79.3848 84.8202 79.3848 81.3672H66.8828C66.8828 84.8202 69.6818 87.6182 73.1328 87.6182Z" fill="#AA3727"/>
<path d="M73.1245 76.8545C71.8095 76.8545 70.6745 76.1285 70.0615 75.0635C70.1305 76.7015 71.4695 78.0105 73.1245 78.0105C74.7775 78.0105 76.1175 76.7015 76.1855 75.0635C75.5745 76.1285 74.4395 76.8545 73.1245 76.8545Z" fill="#FF8F78"/>
<path d="M73.0479 43.1455C78.2946 43.1455 82.5479 38.8922 82.5479 33.6455C82.5479 28.3988 78.2946 24.1455 73.0479 24.1455C67.8011 24.1455 63.5479 28.3988 63.5479 33.6455C63.5479 38.8922 67.8011 43.1455 73.0479 43.1455Z" fill="#743713"/>
<path d="M88.2881 86.067H82.5352V84.083H88.2881C91.1861 84.083 93.5432 81.727 93.5432 78.829V72.207H95.5272V78.829C95.5272 82.82 92.2801 86.067 88.2881 86.067Z" fill="#1E1E1E"/>
<path d="M80.9717 87.3955H79.5728C78.2958 87.3955 77.2607 86.3605 77.2607 85.0825C77.2607 83.8055 78.2958 82.7705 79.5728 82.7705H80.9717C82.2487 82.7705 83.2848 83.8055 83.2848 85.0825C83.2838 86.3595 82.2487 87.3955 80.9717 87.3955Z" fill="#1E1E1E"/>
</g>
</svg>
